<mxfile host="app.diagrams.net" modified="2023-12-02T08:33:43.734Z" agent="Mozilla/5.0 (Windows NT 10.0; Win64; x64) AppleWebKit/537.36 (KHTML, like Gecko) Chrome/119.0.0.0 Safari/537.36" etag="RRpnIh2lFCmV6fWn_2c_" version="22.1.5" type="github">
  <diagram name="Page-1" id="9QFSVHztO7BBNf1MRZZy">
    <mxGraphModel dx="2088" dy="1808" grid="1" gridSize="10" guides="1" tooltips="1" connect="1" arrows="1" fold="1" page="1" pageScale="1" pageWidth="850" pageHeight="1100" math="0" shadow="0">
      <root>
        <mxCell id="0" />
        <mxCell id="1" parent="0" />
        <mxCell id="s3JqpcbHBy0NCb_YPVP7-31" style="edgeStyle=none;shape=connector;rounded=0;orthogonalLoop=1;jettySize=auto;html=1;labelBackgroundColor=default;strokeColor=default;align=center;verticalAlign=middle;fontFamily=Helvetica;fontSize=11;fontColor=default;endArrow=none;" edge="1" parent="1" source="YXJi3BJb1Exxt0jMLbp--2">
          <mxGeometry relative="1" as="geometry">
            <mxPoint x="120" y="400" as="targetPoint" />
            <Array as="points">
              <mxPoint x="150" y="400" />
            </Array>
          </mxGeometry>
        </mxCell>
        <mxCell id="YXJi3BJb1Exxt0jMLbp--2" value="Bachelor" style="shape=umlActor;verticalLabelPosition=bottom;verticalAlign=top;html=1;outlineConnect=0;" parent="1" vertex="1">
          <mxGeometry x="140" y="420" width="20" height="40" as="geometry" />
        </mxCell>
        <mxCell id="YXJi3BJb1Exxt0jMLbp--10" value="Students" style="text;html=1;align=center;verticalAlign=middle;resizable=0;points=[];autosize=1;strokeColor=none;fillColor=none;" parent="1" vertex="1">
          <mxGeometry x="-430" y="400" width="70" height="30" as="geometry" />
        </mxCell>
        <mxCell id="YXJi3BJb1Exxt0jMLbp--12" value="&lt;font style=&quot;font-size: 12px;&quot;&gt;register&lt;/font&gt;" style="ellipse;whiteSpace=wrap;html=1;fontFamily=Helvetica;fontSize=11;fontColor=default;" parent="1" vertex="1">
          <mxGeometry x="279" y="350" width="92" height="16" as="geometry" />
        </mxCell>
        <mxCell id="YXJi3BJb1Exxt0jMLbp--13" value="&lt;span style=&quot;font-size: 12px;&quot;&gt;view marks&lt;/span&gt;" style="ellipse;whiteSpace=wrap;html=1;fontFamily=Helvetica;fontSize=11;fontColor=default;" parent="1" vertex="1">
          <mxGeometry x="279" y="380" width="92" height="16" as="geometry" />
        </mxCell>
        <mxCell id="YXJi3BJb1Exxt0jMLbp--14" value="&lt;span style=&quot;font-size: 12px;&quot;&gt;view transcript&lt;/span&gt;" style="ellipse;whiteSpace=wrap;html=1;fontFamily=Helvetica;fontSize=11;fontColor=default;" parent="1" vertex="1">
          <mxGeometry x="279" y="410" width="92" height="16" as="geometry" />
        </mxCell>
        <mxCell id="YXJi3BJb1Exxt0jMLbp--15" value="&lt;span style=&quot;font-size: 12px;&quot;&gt;get transcript&lt;/span&gt;" style="ellipse;whiteSpace=wrap;html=1;fontFamily=Helvetica;fontSize=11;fontColor=default;" parent="1" vertex="1">
          <mxGeometry x="279" y="440" width="92" height="16" as="geometry" />
        </mxCell>
        <mxCell id="YXJi3BJb1Exxt0jMLbp--16" value="&lt;span style=&quot;font-size: 12px;&quot;&gt;rate teachers&lt;/span&gt;" style="ellipse;whiteSpace=wrap;html=1;fontFamily=Helvetica;fontSize=11;fontColor=default;" parent="1" vertex="1">
          <mxGeometry x="279" y="470" width="92" height="16" as="geometry" />
        </mxCell>
        <mxCell id="YXJi3BJb1Exxt0jMLbp--136" style="edgeStyle=none;shape=connector;rounded=0;orthogonalLoop=1;jettySize=auto;html=1;entryX=0;entryY=0.5;entryDx=0;entryDy=0;labelBackgroundColor=default;strokeColor=#f50000;align=center;verticalAlign=middle;fontFamily=Helvetica;fontSize=11;fontColor=default;endArrow=none;" parent="1" source="YXJi3BJb1Exxt0jMLbp--26" target="YXJi3BJb1Exxt0jMLbp--106" edge="1">
          <mxGeometry relative="1" as="geometry" />
        </mxCell>
        <mxCell id="YXJi3BJb1Exxt0jMLbp--137" style="edgeStyle=none;shape=connector;rounded=0;orthogonalLoop=1;jettySize=auto;html=1;entryX=0;entryY=0.5;entryDx=0;entryDy=0;labelBackgroundColor=default;strokeColor=#f51414;align=center;verticalAlign=middle;fontFamily=Helvetica;fontSize=11;fontColor=default;endArrow=none;" parent="1" source="YXJi3BJb1Exxt0jMLbp--26" target="YXJi3BJb1Exxt0jMLbp--36" edge="1">
          <mxGeometry relative="1" as="geometry" />
        </mxCell>
        <mxCell id="YXJi3BJb1Exxt0jMLbp--138" style="edgeStyle=none;shape=connector;rounded=0;orthogonalLoop=1;jettySize=auto;html=1;entryX=0;entryY=0.5;entryDx=0;entryDy=0;labelBackgroundColor=default;strokeColor=#f50000;align=center;verticalAlign=middle;fontFamily=Helvetica;fontSize=11;fontColor=default;endArrow=none;" parent="1" source="YXJi3BJb1Exxt0jMLbp--26" target="YXJi3BJb1Exxt0jMLbp--46" edge="1">
          <mxGeometry relative="1" as="geometry" />
        </mxCell>
        <mxCell id="YXJi3BJb1Exxt0jMLbp--139" style="edgeStyle=none;shape=connector;rounded=0;orthogonalLoop=1;jettySize=auto;html=1;entryX=0;entryY=0.5;entryDx=0;entryDy=0;labelBackgroundColor=default;strokeColor=#f50000;align=center;verticalAlign=middle;fontFamily=Helvetica;fontSize=11;fontColor=default;endArrow=none;" parent="1" source="YXJi3BJb1Exxt0jMLbp--26" target="YXJi3BJb1Exxt0jMLbp--40" edge="1">
          <mxGeometry relative="1" as="geometry" />
        </mxCell>
        <mxCell id="YXJi3BJb1Exxt0jMLbp--140" style="edgeStyle=none;shape=connector;rounded=0;orthogonalLoop=1;jettySize=auto;html=1;entryX=0;entryY=0.5;entryDx=0;entryDy=0;labelBackgroundColor=default;strokeColor=#f50000;align=center;verticalAlign=middle;fontFamily=Helvetica;fontSize=11;fontColor=default;endArrow=none;" parent="1" source="YXJi3BJb1Exxt0jMLbp--26" target="YXJi3BJb1Exxt0jMLbp--34" edge="1">
          <mxGeometry relative="1" as="geometry" />
        </mxCell>
        <mxCell id="YXJi3BJb1Exxt0jMLbp--141" style="edgeStyle=none;shape=connector;rounded=0;orthogonalLoop=1;jettySize=auto;html=1;entryX=0;entryY=0.5;entryDx=0;entryDy=0;labelBackgroundColor=default;strokeColor=#f50000;align=center;verticalAlign=middle;fontFamily=Helvetica;fontSize=11;fontColor=default;endArrow=none;" parent="1" source="YXJi3BJb1Exxt0jMLbp--26" target="YXJi3BJb1Exxt0jMLbp--28" edge="1">
          <mxGeometry relative="1" as="geometry" />
        </mxCell>
        <mxCell id="YXJi3BJb1Exxt0jMLbp--142" style="edgeStyle=none;shape=connector;rounded=0;orthogonalLoop=1;jettySize=auto;html=1;entryX=0;entryY=0.5;entryDx=0;entryDy=0;labelBackgroundColor=default;strokeColor=#f50000;align=center;verticalAlign=middle;fontFamily=Helvetica;fontSize=11;fontColor=default;endArrow=none;" parent="1" source="YXJi3BJb1Exxt0jMLbp--26" target="YXJi3BJb1Exxt0jMLbp--114" edge="1">
          <mxGeometry relative="1" as="geometry" />
        </mxCell>
        <object label="Teacher" stjkjn="l&#xa;;lm&#xa;" id="YXJi3BJb1Exxt0jMLbp--26">
          <mxCell style="shape=umlActor;verticalLabelPosition=bottom;verticalAlign=top;html=1;outlineConnect=0;" parent="1" vertex="1">
            <mxGeometry x="110" y="200" width="20" height="40" as="geometry" />
          </mxCell>
        </object>
        <mxCell id="YXJi3BJb1Exxt0jMLbp--28" value="&lt;span style=&quot;font-size: 12px;&quot;&gt;view course&lt;/span&gt;" style="ellipse;whiteSpace=wrap;html=1;fontFamily=Helvetica;fontSize=11;fontColor=default;" parent="1" vertex="1">
          <mxGeometry x="279" y="260" width="92" height="16" as="geometry" />
        </mxCell>
        <mxCell id="YXJi3BJb1Exxt0jMLbp--34" value="&lt;span style=&quot;font-size: 12px;&quot;&gt;manage course&lt;/span&gt;" style="ellipse;whiteSpace=wrap;html=1;fontFamily=Helvetica;fontSize=11;fontColor=default;" parent="1" vertex="1">
          <mxGeometry x="279" y="230" width="92" height="16" as="geometry" />
        </mxCell>
        <mxCell id="YXJi3BJb1Exxt0jMLbp--40" value="&lt;span style=&quot;font-size: 12px;&quot;&gt;put marks&lt;/span&gt;" style="ellipse;whiteSpace=wrap;html=1;fontFamily=Helvetica;fontSize=11;fontColor=default;" parent="1" vertex="1">
          <mxGeometry x="279" y="200" width="92" height="16" as="geometry" />
        </mxCell>
        <mxCell id="YXJi3BJb1Exxt0jMLbp--46" value="&lt;span style=&quot;font-size: 12px;&quot;&gt;send message&lt;/span&gt;" style="ellipse;whiteSpace=wrap;html=1;fontFamily=Helvetica;fontSize=11;fontColor=default;" parent="1" vertex="1">
          <mxGeometry x="279" y="170" width="92" height="16" as="geometry" />
        </mxCell>
        <mxCell id="YXJi3BJb1Exxt0jMLbp--156" style="edgeStyle=none;shape=connector;rounded=0;orthogonalLoop=1;jettySize=auto;html=1;entryX=1;entryY=0.5;entryDx=0;entryDy=0;labelBackgroundColor=default;strokeColor=default;align=center;verticalAlign=middle;fontFamily=Helvetica;fontSize=11;fontColor=default;endArrow=none;" parent="1" source="YXJi3BJb1Exxt0jMLbp--49" target="YXJi3BJb1Exxt0jMLbp--51" edge="1">
          <mxGeometry relative="1" as="geometry" />
        </mxCell>
        <mxCell id="YXJi3BJb1Exxt0jMLbp--157" style="edgeStyle=none;shape=connector;rounded=0;orthogonalLoop=1;jettySize=auto;html=1;entryX=1;entryY=0.5;entryDx=0;entryDy=0;labelBackgroundColor=default;strokeColor=default;align=center;verticalAlign=middle;fontFamily=Helvetica;fontSize=11;fontColor=default;endArrow=none;" parent="1" source="YXJi3BJb1Exxt0jMLbp--49" target="YXJi3BJb1Exxt0jMLbp--52" edge="1">
          <mxGeometry relative="1" as="geometry" />
        </mxCell>
        <mxCell id="YXJi3BJb1Exxt0jMLbp--158" style="edgeStyle=none;shape=connector;rounded=0;orthogonalLoop=1;jettySize=auto;html=1;entryX=1;entryY=0.5;entryDx=0;entryDy=0;labelBackgroundColor=default;strokeColor=default;align=center;verticalAlign=middle;fontFamily=Helvetica;fontSize=11;fontColor=default;endArrow=none;" parent="1" source="YXJi3BJb1Exxt0jMLbp--49" target="YXJi3BJb1Exxt0jMLbp--53" edge="1">
          <mxGeometry relative="1" as="geometry" />
        </mxCell>
        <object label="Admin" stjkjn="l&#xa;;lm&#xa;" id="YXJi3BJb1Exxt0jMLbp--49">
          <mxCell style="shape=umlActor;verticalLabelPosition=bottom;verticalAlign=top;html=1;outlineConnect=0;" parent="1" vertex="1">
            <mxGeometry x="730" y="80" width="20" height="40" as="geometry" />
          </mxCell>
        </object>
        <mxCell id="YXJi3BJb1Exxt0jMLbp--159" style="edgeStyle=none;shape=connector;rounded=0;orthogonalLoop=1;jettySize=auto;html=1;entryX=1;entryY=0.5;entryDx=0;entryDy=0;labelBackgroundColor=default;strokeColor=#0000f5;align=center;verticalAlign=middle;fontFamily=Helvetica;fontSize=11;fontColor=default;endArrow=none;" parent="1" source="YXJi3BJb1Exxt0jMLbp--69" target="YXJi3BJb1Exxt0jMLbp--71" edge="1">
          <mxGeometry relative="1" as="geometry" />
        </mxCell>
        <mxCell id="YXJi3BJb1Exxt0jMLbp--160" style="edgeStyle=none;shape=connector;rounded=0;orthogonalLoop=1;jettySize=auto;html=1;entryX=1;entryY=0.25;entryDx=0;entryDy=0;labelBackgroundColor=default;strokeColor=#0000f5;align=center;verticalAlign=middle;fontFamily=Helvetica;fontSize=11;fontColor=default;endArrow=none;" parent="1" source="YXJi3BJb1Exxt0jMLbp--69" target="YXJi3BJb1Exxt0jMLbp--72" edge="1">
          <mxGeometry relative="1" as="geometry" />
        </mxCell>
        <mxCell id="YXJi3BJb1Exxt0jMLbp--161" style="edgeStyle=none;shape=connector;rounded=0;orthogonalLoop=1;jettySize=auto;html=1;entryX=1;entryY=0.5;entryDx=0;entryDy=0;labelBackgroundColor=default;strokeColor=#0000f5;align=center;verticalAlign=middle;fontFamily=Helvetica;fontSize=11;fontColor=default;endArrow=none;" parent="1" source="YXJi3BJb1Exxt0jMLbp--69" target="YXJi3BJb1Exxt0jMLbp--73" edge="1">
          <mxGeometry relative="1" as="geometry" />
        </mxCell>
        <mxCell id="YXJi3BJb1Exxt0jMLbp--162" style="edgeStyle=none;shape=connector;rounded=0;orthogonalLoop=1;jettySize=auto;html=1;entryX=1;entryY=0.5;entryDx=0;entryDy=0;labelBackgroundColor=default;strokeColor=#0000f5;align=center;verticalAlign=middle;fontFamily=Helvetica;fontSize=11;fontColor=default;endArrow=none;" parent="1" source="YXJi3BJb1Exxt0jMLbp--69" target="YXJi3BJb1Exxt0jMLbp--75" edge="1">
          <mxGeometry relative="1" as="geometry" />
        </mxCell>
        <mxCell id="YXJi3BJb1Exxt0jMLbp--163" style="edgeStyle=none;shape=connector;rounded=0;orthogonalLoop=1;jettySize=auto;html=1;entryX=1;entryY=0.5;entryDx=0;entryDy=0;labelBackgroundColor=default;strokeColor=#0000f5;align=center;verticalAlign=middle;fontFamily=Helvetica;fontSize=11;fontColor=default;endArrow=none;" parent="1" source="YXJi3BJb1Exxt0jMLbp--69" target="YXJi3BJb1Exxt0jMLbp--76" edge="1">
          <mxGeometry relative="1" as="geometry" />
        </mxCell>
        <mxCell id="YXJi3BJb1Exxt0jMLbp--164" style="edgeStyle=none;shape=connector;rounded=0;orthogonalLoop=1;jettySize=auto;html=1;entryX=1;entryY=0.5;entryDx=0;entryDy=0;labelBackgroundColor=default;strokeColor=#0000f5;align=center;verticalAlign=middle;fontFamily=Helvetica;fontSize=11;fontColor=default;endArrow=none;" parent="1" source="YXJi3BJb1Exxt0jMLbp--69" target="YXJi3BJb1Exxt0jMLbp--77" edge="1">
          <mxGeometry relative="1" as="geometry" />
        </mxCell>
        <mxCell id="YXJi3BJb1Exxt0jMLbp--166" style="edgeStyle=none;shape=connector;rounded=0;orthogonalLoop=1;jettySize=auto;html=1;entryX=1;entryY=0.5;entryDx=0;entryDy=0;labelBackgroundColor=default;strokeColor=#0000f5;align=center;verticalAlign=middle;fontFamily=Helvetica;fontSize=11;fontColor=default;endArrow=none;" parent="1" source="YXJi3BJb1Exxt0jMLbp--69" target="YXJi3BJb1Exxt0jMLbp--84" edge="1">
          <mxGeometry relative="1" as="geometry">
            <Array as="points">
              <mxPoint x="630" y="170" />
              <mxPoint x="500" y="170" />
            </Array>
          </mxGeometry>
        </mxCell>
        <mxCell id="YXJi3BJb1Exxt0jMLbp--167" style="edgeStyle=none;shape=connector;rounded=0;orthogonalLoop=1;jettySize=auto;html=1;entryX=1;entryY=0.5;entryDx=0;entryDy=0;labelBackgroundColor=default;strokeColor=#0002f5;align=center;verticalAlign=middle;fontFamily=Helvetica;fontSize=11;fontColor=default;endArrow=none;" parent="1" source="YXJi3BJb1Exxt0jMLbp--69" target="YXJi3BJb1Exxt0jMLbp--36" edge="1">
          <mxGeometry relative="1" as="geometry">
            <Array as="points">
              <mxPoint x="630" y="160" />
              <mxPoint x="520" y="160" />
            </Array>
          </mxGeometry>
        </mxCell>
        <object label="Manager" stjkjn="l&#xa;;lm&#xa;" id="YXJi3BJb1Exxt0jMLbp--69">
          <mxCell style="shape=umlActor;verticalLabelPosition=bottom;verticalAlign=top;html=1;outlineConnect=0;" parent="1" vertex="1">
            <mxGeometry x="730" y="260" width="20" height="40" as="geometry" />
          </mxCell>
        </object>
        <mxCell id="YXJi3BJb1Exxt0jMLbp--71" value="Approve&amp;nbsp; registration" style="ellipse;whiteSpace=wrap;html=1;fontFamily=Helvetica;fontSize=11;fontColor=default;" parent="1" vertex="1">
          <mxGeometry x="437" y="380" width="170" height="30" as="geometry" />
        </mxCell>
        <mxCell id="YXJi3BJb1Exxt0jMLbp--72" value="Add courses for registration" style="ellipse;whiteSpace=wrap;html=1;fontFamily=Helvetica;fontSize=11;fontColor=default;" parent="1" vertex="1">
          <mxGeometry x="437" y="340" width="170" height="30" as="geometry" />
        </mxCell>
        <mxCell id="YXJi3BJb1Exxt0jMLbp--73" value="Assign courses to teachers" style="ellipse;whiteSpace=wrap;html=1;fontFamily=Helvetica;fontSize=11;fontColor=default;" parent="1" vertex="1">
          <mxGeometry x="437" y="300" width="170" height="30" as="geometry" />
        </mxCell>
        <mxCell id="YXJi3BJb1Exxt0jMLbp--75" value=" Create statistical reports" style="ellipse;whiteSpace=wrap;html=1;fontFamily=Helvetica;fontSize=11;fontColor=default;" parent="1" vertex="1">
          <mxGeometry x="437" y="260" width="170" height="30" as="geometry" />
        </mxCell>
        <mxCell id="YXJi3BJb1Exxt0jMLbp--76" value=" Manage news" style="ellipse;whiteSpace=wrap;html=1;fontFamily=Helvetica;fontSize=11;fontColor=default;" parent="1" vertex="1">
          <mxGeometry x="437" y="220" width="170" height="30" as="geometry" />
        </mxCell>
        <mxCell id="YXJi3BJb1Exxt0jMLbp--77" value=" View requests from employees" style="ellipse;whiteSpace=wrap;html=1;fontFamily=Helvetica;fontSize=11;fontColor=default;" parent="1" vertex="1">
          <mxGeometry x="437" y="180" width="170" height="30" as="geometry" />
        </mxCell>
        <mxCell id="YXJi3BJb1Exxt0jMLbp--133" style="edgeStyle=orthogonalEdgeStyle;rounded=0;orthogonalLoop=1;jettySize=auto;html=1;" parent="1" source="YXJi3BJb1Exxt0jMLbp--97" edge="1">
          <mxGeometry relative="1" as="geometry">
            <mxPoint x="120" y="380" as="targetPoint" />
            <Array as="points">
              <mxPoint x="90" y="400" />
              <mxPoint x="120" y="400" />
            </Array>
          </mxGeometry>
        </mxCell>
        <mxCell id="YXJi3BJb1Exxt0jMLbp--153" style="edgeStyle=none;shape=connector;rounded=0;orthogonalLoop=1;jettySize=auto;html=1;entryX=0;entryY=0.5;entryDx=0;entryDy=0;labelBackgroundColor=default;strokeColor=default;align=center;verticalAlign=middle;fontFamily=Helvetica;fontSize=11;fontColor=default;endArrow=none;" parent="1" source="YXJi3BJb1Exxt0jMLbp--97" target="YXJi3BJb1Exxt0jMLbp--106" edge="1">
          <mxGeometry relative="1" as="geometry">
            <Array as="points">
              <mxPoint x="50" y="440" />
              <mxPoint x="50" y="200" />
            </Array>
          </mxGeometry>
        </mxCell>
        <mxCell id="YXJi3BJb1Exxt0jMLbp--97" value="Phd" style="shape=umlActor;verticalLabelPosition=bottom;verticalAlign=top;html=1;outlineConnect=0;" parent="1" vertex="1">
          <mxGeometry x="80" y="420" width="20" height="40" as="geometry" />
        </mxCell>
        <mxCell id="YXJi3BJb1Exxt0jMLbp--152" style="edgeStyle=none;shape=connector;rounded=0;orthogonalLoop=1;jettySize=auto;html=1;labelBackgroundColor=default;strokeColor=default;align=center;verticalAlign=middle;fontFamily=Helvetica;fontSize=11;fontColor=default;endArrow=none;" parent="1" source="YXJi3BJb1Exxt0jMLbp--108" target="YXJi3BJb1Exxt0jMLbp--106" edge="1">
          <mxGeometry relative="1" as="geometry" />
        </mxCell>
        <object label="Resercher" stjkjn="l&#xa;;lm&#xa;" id="YXJi3BJb1Exxt0jMLbp--108">
          <mxCell style="shape=umlActor;verticalLabelPosition=bottom;verticalAlign=top;html=1;outlineConnect=0;" parent="1" vertex="1">
            <mxGeometry x="110" y="120" width="20" height="40" as="geometry" />
          </mxCell>
        </object>
        <mxCell id="YXJi3BJb1Exxt0jMLbp--114" value="&lt;span style=&quot;font-size: 12px;&quot;&gt;attendance&lt;/span&gt;" style="ellipse;whiteSpace=wrap;html=1;fontFamily=Helvetica;fontSize=11;fontColor=default;" parent="1" vertex="1">
          <mxGeometry x="279" y="290" width="92" height="16" as="geometry" />
        </mxCell>
        <mxCell id="YXJi3BJb1Exxt0jMLbp--119" value="&lt;span style=&quot;font-size: 12px;&quot;&gt;schedule&lt;/span&gt;" style="ellipse;whiteSpace=wrap;html=1;fontFamily=Helvetica;fontSize=11;fontColor=default;" parent="1" vertex="1">
          <mxGeometry x="279" y="320" width="92" height="16" as="geometry" />
        </mxCell>
        <mxCell id="YXJi3BJb1Exxt0jMLbp--127" value="UNIVERSITY SYSTEM" style="swimlane;startSize=0;verticalAlign=top;" parent="1" vertex="1">
          <mxGeometry x="260" y="-10" width="380" height="540" as="geometry" />
        </mxCell>
        <mxCell id="YXJi3BJb1Exxt0jMLbp--84" value="teacher info" style="ellipse;whiteSpace=wrap;html=1;fontFamily=Helvetica;fontSize=11;fontColor=default;" parent="YXJi3BJb1Exxt0jMLbp--127" vertex="1">
          <mxGeometry x="60" y="100" width="100" height="20" as="geometry" />
        </mxCell>
        <mxCell id="YXJi3BJb1Exxt0jMLbp--36" value="students info" style="ellipse;whiteSpace=wrap;html=1;fontFamily=Helvetica;fontSize=11;fontColor=default;" parent="YXJi3BJb1Exxt0jMLbp--127" vertex="1">
          <mxGeometry x="60" y="60" width="100" height="20" as="geometry" />
        </mxCell>
        <mxCell id="YXJi3BJb1Exxt0jMLbp--106" value="make a reserch" style="ellipse;whiteSpace=wrap;html=1;fontFamily=Helvetica;fontSize=11;fontColor=default;" parent="YXJi3BJb1Exxt0jMLbp--127" vertex="1">
          <mxGeometry x="60" y="140" width="100" height="20" as="geometry" />
        </mxCell>
        <mxCell id="YXJi3BJb1Exxt0jMLbp--53" value="remove user" style="ellipse;whiteSpace=wrap;html=1;fontFamily=Helvetica;fontSize=11;fontColor=default;" parent="YXJi3BJb1Exxt0jMLbp--127" vertex="1">
          <mxGeometry x="280" y="140" width="70" height="20" as="geometry" />
        </mxCell>
        <mxCell id="YXJi3BJb1Exxt0jMLbp--52" value="update user" style="ellipse;whiteSpace=wrap;html=1;fontFamily=Helvetica;fontSize=11;fontColor=default;" parent="YXJi3BJb1Exxt0jMLbp--127" vertex="1">
          <mxGeometry x="280" y="100" width="70" height="20" as="geometry" />
        </mxCell>
        <mxCell id="YXJi3BJb1Exxt0jMLbp--51" value="add user" style="ellipse;whiteSpace=wrap;html=1;fontFamily=Helvetica;fontSize=11;fontColor=default;" parent="YXJi3BJb1Exxt0jMLbp--127" vertex="1">
          <mxGeometry x="280" y="60" width="70" height="20" as="geometry" />
        </mxCell>
        <mxCell id="s3JqpcbHBy0NCb_YPVP7-10" value="extend" style="endArrow=open;endSize=12;dashed=1;html=1;rounded=0;labelBackgroundColor=default;strokeColor=default;align=center;verticalAlign=middle;fontFamily=Helvetica;fontSize=11;fontColor=default;shape=connector;" edge="1" parent="YXJi3BJb1Exxt0jMLbp--127">
          <mxGeometry width="160" relative="1" as="geometry">
            <mxPoint x="130" y="370" as="sourcePoint" />
            <mxPoint x="180" y="370" as="targetPoint" />
          </mxGeometry>
        </mxCell>
        <mxCell id="s3JqpcbHBy0NCb_YPVP7-11" value="extend" style="endArrow=open;endSize=12;dashed=1;html=1;rounded=0;labelBackgroundColor=default;strokeColor=default;align=center;verticalAlign=middle;fontFamily=Helvetica;fontSize=11;fontColor=default;shape=connector;exitX=0.06;exitY=0.209;exitDx=0;exitDy=0;exitPerimeter=0;" edge="1" parent="YXJi3BJb1Exxt0jMLbp--127" source="YXJi3BJb1Exxt0jMLbp--71">
          <mxGeometry width="160" relative="1" as="geometry">
            <mxPoint x="190" y="428.181818181818" as="sourcePoint" />
            <mxPoint x="110" y="370" as="targetPoint" />
          </mxGeometry>
        </mxCell>
        <mxCell id="YXJi3BJb1Exxt0jMLbp--17" value="&lt;span style=&quot;font-size: 12px;&quot;&gt;stud. org.&lt;/span&gt;" style="ellipse;whiteSpace=wrap;html=1;fontFamily=Helvetica;fontSize=11;fontColor=default;" parent="YXJi3BJb1Exxt0jMLbp--127" vertex="1">
          <mxGeometry x="20" y="510" width="92" height="16" as="geometry" />
        </mxCell>
        <mxCell id="YXJi3BJb1Exxt0jMLbp--143" style="edgeStyle=none;shape=connector;rounded=0;orthogonalLoop=1;jettySize=auto;html=1;entryX=0;entryY=0.5;entryDx=0;entryDy=0;labelBackgroundColor=default;strokeColor=default;align=center;verticalAlign=middle;fontFamily=Helvetica;fontSize=11;fontColor=default;endArrow=none;" parent="1" source="YXJi3BJb1Exxt0jMLbp--130" target="YXJi3BJb1Exxt0jMLbp--114" edge="1">
          <mxGeometry relative="1" as="geometry" />
        </mxCell>
        <mxCell id="YXJi3BJb1Exxt0jMLbp--144" style="edgeStyle=none;shape=connector;rounded=0;orthogonalLoop=1;jettySize=auto;html=1;labelBackgroundColor=default;align=center;verticalAlign=middle;fontFamily=Helvetica;fontSize=11;fontColor=default;endArrow=none;entryX=0.002;entryY=0.714;entryDx=0;entryDy=0;entryPerimeter=0;" parent="1" source="YXJi3BJb1Exxt0jMLbp--130" edge="1" target="YXJi3BJb1Exxt0jMLbp--28">
          <mxGeometry relative="1" as="geometry">
            <mxPoint x="300" y="270" as="targetPoint" />
          </mxGeometry>
        </mxCell>
        <mxCell id="YXJi3BJb1Exxt0jMLbp--145" style="edgeStyle=none;shape=connector;rounded=0;orthogonalLoop=1;jettySize=auto;html=1;entryX=0;entryY=0.5;entryDx=0;entryDy=0;labelBackgroundColor=default;strokeColor=default;align=center;verticalAlign=middle;fontFamily=Helvetica;fontSize=11;fontColor=default;endArrow=none;" parent="1" source="YXJi3BJb1Exxt0jMLbp--130" target="YXJi3BJb1Exxt0jMLbp--119" edge="1">
          <mxGeometry relative="1" as="geometry" />
        </mxCell>
        <mxCell id="YXJi3BJb1Exxt0jMLbp--146" style="edgeStyle=none;shape=connector;rounded=0;orthogonalLoop=1;jettySize=auto;html=1;entryX=0;entryY=0.5;entryDx=0;entryDy=0;labelBackgroundColor=default;strokeColor=default;align=center;verticalAlign=middle;fontFamily=Helvetica;fontSize=11;fontColor=default;endArrow=none;" parent="1" source="YXJi3BJb1Exxt0jMLbp--130" target="YXJi3BJb1Exxt0jMLbp--12" edge="1">
          <mxGeometry relative="1" as="geometry" />
        </mxCell>
        <mxCell id="YXJi3BJb1Exxt0jMLbp--147" style="edgeStyle=none;shape=connector;rounded=0;orthogonalLoop=1;jettySize=auto;html=1;entryX=0;entryY=0.5;entryDx=0;entryDy=0;labelBackgroundColor=default;strokeColor=default;align=center;verticalAlign=middle;fontFamily=Helvetica;fontSize=11;fontColor=default;endArrow=none;" parent="1" source="YXJi3BJb1Exxt0jMLbp--130" target="YXJi3BJb1Exxt0jMLbp--13" edge="1">
          <mxGeometry relative="1" as="geometry" />
        </mxCell>
        <mxCell id="YXJi3BJb1Exxt0jMLbp--148" style="edgeStyle=none;shape=connector;rounded=0;orthogonalLoop=1;jettySize=auto;html=1;entryX=0;entryY=0.5;entryDx=0;entryDy=0;labelBackgroundColor=default;strokeColor=default;align=center;verticalAlign=middle;fontFamily=Helvetica;fontSize=11;fontColor=default;endArrow=none;" parent="1" source="YXJi3BJb1Exxt0jMLbp--130" target="YXJi3BJb1Exxt0jMLbp--14" edge="1">
          <mxGeometry relative="1" as="geometry" />
        </mxCell>
        <mxCell id="YXJi3BJb1Exxt0jMLbp--149" style="edgeStyle=none;shape=connector;rounded=0;orthogonalLoop=1;jettySize=auto;html=1;entryX=0;entryY=0.5;entryDx=0;entryDy=0;labelBackgroundColor=default;strokeColor=default;align=center;verticalAlign=middle;fontFamily=Helvetica;fontSize=11;fontColor=default;endArrow=none;" parent="1" source="YXJi3BJb1Exxt0jMLbp--130" target="YXJi3BJb1Exxt0jMLbp--17" edge="1">
          <mxGeometry relative="1" as="geometry" />
        </mxCell>
        <mxCell id="YXJi3BJb1Exxt0jMLbp--150" style="edgeStyle=none;shape=connector;rounded=0;orthogonalLoop=1;jettySize=auto;html=1;entryX=0;entryY=0.5;entryDx=0;entryDy=0;labelBackgroundColor=default;strokeColor=default;align=center;verticalAlign=middle;fontFamily=Helvetica;fontSize=11;fontColor=default;endArrow=none;" parent="1" source="YXJi3BJb1Exxt0jMLbp--130" target="YXJi3BJb1Exxt0jMLbp--16" edge="1">
          <mxGeometry relative="1" as="geometry" />
        </mxCell>
        <mxCell id="YXJi3BJb1Exxt0jMLbp--151" style="edgeStyle=none;shape=connector;rounded=0;orthogonalLoop=1;jettySize=auto;html=1;entryX=0;entryY=0.5;entryDx=0;entryDy=0;labelBackgroundColor=default;strokeColor=default;align=center;verticalAlign=middle;fontFamily=Helvetica;fontSize=11;fontColor=default;endArrow=none;" parent="1" source="YXJi3BJb1Exxt0jMLbp--130" target="YXJi3BJb1Exxt0jMLbp--15" edge="1">
          <mxGeometry relative="1" as="geometry" />
        </mxCell>
        <mxCell id="YXJi3BJb1Exxt0jMLbp--130" value="Student" style="shape=umlActor;verticalLabelPosition=bottom;verticalAlign=top;html=1;outlineConnect=0;" parent="1" vertex="1">
          <mxGeometry x="110" y="320" width="20" height="40" as="geometry" />
        </mxCell>
        <object label="USER" stjkjn="l&#xa;;lm&#xa;" id="s3JqpcbHBy0NCb_YPVP7-1">
          <mxCell style="shape=umlActor;verticalLabelPosition=bottom;verticalAlign=top;html=1;outlineConnect=0;" vertex="1" parent="1">
            <mxGeometry x="420" y="-132" width="30" height="60" as="geometry" />
          </mxCell>
        </object>
        <mxCell id="s3JqpcbHBy0NCb_YPVP7-13" style="edgeStyle=none;shape=connector;rounded=0;orthogonalLoop=1;jettySize=auto;html=1;labelBackgroundColor=default;strokeColor=default;align=center;verticalAlign=middle;fontFamily=Helvetica;fontSize=11;fontColor=default;endArrow=classic;" edge="1" parent="1" source="YXJi3BJb1Exxt0jMLbp--49" target="s3JqpcbHBy0NCb_YPVP7-1">
          <mxGeometry relative="1" as="geometry">
            <Array as="points">
              <mxPoint x="740" />
            </Array>
          </mxGeometry>
        </mxCell>
        <mxCell id="s3JqpcbHBy0NCb_YPVP7-27" style="edgeStyle=none;shape=connector;rounded=0;orthogonalLoop=1;jettySize=auto;html=1;entryX=0.5;entryY=0.5;entryDx=0;entryDy=0;entryPerimeter=0;labelBackgroundColor=default;strokeColor=#00f500;align=center;verticalAlign=middle;fontFamily=Helvetica;fontSize=11;fontColor=default;endArrow=none;" edge="1" parent="1" source="s3JqpcbHBy0NCb_YPVP7-1" target="YXJi3BJb1Exxt0jMLbp--108">
          <mxGeometry relative="1" as="geometry">
            <Array as="points">
              <mxPoint x="120" y="-102" />
            </Array>
          </mxGeometry>
        </mxCell>
        <mxCell id="s3JqpcbHBy0NCb_YPVP7-28" style="edgeStyle=none;shape=connector;rounded=0;orthogonalLoop=1;jettySize=auto;html=1;entryX=0.5;entryY=0.5;entryDx=0;entryDy=0;entryPerimeter=0;labelBackgroundColor=default;strokeColor=#00f500;align=center;verticalAlign=middle;fontFamily=Helvetica;fontSize=11;fontColor=default;endArrow=none;" edge="1" parent="1" source="s3JqpcbHBy0NCb_YPVP7-1" target="YXJi3BJb1Exxt0jMLbp--26">
          <mxGeometry relative="1" as="geometry">
            <Array as="points">
              <mxPoint x="80" y="-102" />
              <mxPoint x="80" y="220" />
            </Array>
          </mxGeometry>
        </mxCell>
        <mxCell id="s3JqpcbHBy0NCb_YPVP7-29" style="edgeStyle=none;shape=connector;rounded=0;orthogonalLoop=1;jettySize=auto;html=1;entryX=0.5;entryY=0.5;entryDx=0;entryDy=0;entryPerimeter=0;labelBackgroundColor=default;strokeColor=#00f500;align=center;verticalAlign=middle;fontFamily=Helvetica;fontSize=11;fontColor=default;endArrow=none;" edge="1" parent="1" source="s3JqpcbHBy0NCb_YPVP7-1" target="YXJi3BJb1Exxt0jMLbp--130">
          <mxGeometry relative="1" as="geometry">
            <Array as="points">
              <mxPoint x="40" y="-102" />
              <mxPoint x="40" y="340" />
            </Array>
          </mxGeometry>
        </mxCell>
        <mxCell id="s3JqpcbHBy0NCb_YPVP7-30" style="edgeStyle=none;shape=connector;rounded=0;orthogonalLoop=1;jettySize=auto;html=1;entryX=0.5;entryY=0.5;entryDx=0;entryDy=0;entryPerimeter=0;labelBackgroundColor=default;strokeColor=#00f500;align=center;verticalAlign=middle;fontFamily=Helvetica;fontSize=11;fontColor=default;endArrow=none;" edge="1" parent="1" source="s3JqpcbHBy0NCb_YPVP7-1" target="YXJi3BJb1Exxt0jMLbp--69">
          <mxGeometry relative="1" as="geometry">
            <Array as="points">
              <mxPoint x="800" y="-102" />
              <mxPoint x="800" y="280" />
            </Array>
          </mxGeometry>
        </mxCell>
        <mxCell id="s3JqpcbHBy0NCb_YPVP7-32" value="extend" style="endArrow=open;endSize=12;dashed=1;html=1;rounded=0;labelBackgroundColor=default;strokeColor=default;align=center;verticalAlign=middle;fontFamily=Helvetica;fontSize=11;fontColor=default;shape=connector;exitX=1;exitY=0.5;exitDx=0;exitDy=0;entryX=1;entryY=1;entryDx=0;entryDy=0;" edge="1" parent="1" source="YXJi3BJb1Exxt0jMLbp--16" target="YXJi3BJb1Exxt0jMLbp--84">
          <mxGeometry width="160" relative="1" as="geometry">
            <mxPoint x="300" y="290" as="sourcePoint" />
            <mxPoint x="460" y="290" as="targetPoint" />
            <Array as="points">
              <mxPoint x="430" y="480" />
              <mxPoint x="430" y="320" />
              <mxPoint x="430" y="140" />
            </Array>
          </mxGeometry>
        </mxCell>
        <mxCell id="s3JqpcbHBy0NCb_YPVP7-35" style="edgeStyle=none;shape=connector;rounded=0;orthogonalLoop=1;jettySize=auto;html=1;labelBackgroundColor=default;strokeColor=default;align=center;verticalAlign=middle;fontFamily=Helvetica;fontSize=11;fontColor=default;endArrow=none;" edge="1" parent="1" source="s3JqpcbHBy0NCb_YPVP7-33">
          <mxGeometry relative="1" as="geometry">
            <mxPoint x="740" y="340" as="targetPoint" />
            <Array as="points">
              <mxPoint x="710" y="340" />
            </Array>
          </mxGeometry>
        </mxCell>
        <object label="OR" stjkjn="l&#xa;;lm&#xa;" id="s3JqpcbHBy0NCb_YPVP7-33">
          <mxCell style="shape=umlActor;verticalLabelPosition=bottom;verticalAlign=top;html=1;outlineConnect=0;" vertex="1" parent="1">
            <mxGeometry x="700" y="356" width="20" height="40" as="geometry" />
          </mxCell>
        </object>
        <mxCell id="s3JqpcbHBy0NCb_YPVP7-38" style="edgeStyle=orthogonalEdgeStyle;shape=connector;rounded=0;orthogonalLoop=1;jettySize=auto;html=1;labelBackgroundColor=default;strokeColor=default;align=left;verticalAlign=top;fontFamily=Helvetica;fontSize=11;fontColor=default;endArrow=block;endFill=1;" edge="1" parent="1" source="s3JqpcbHBy0NCb_YPVP7-34">
          <mxGeometry relative="1" as="geometry">
            <mxPoint x="740" y="320" as="targetPoint" />
            <Array as="points">
              <mxPoint x="770" y="340" />
              <mxPoint x="740" y="340" />
              <mxPoint x="740" y="320" />
            </Array>
          </mxGeometry>
        </mxCell>
        <object label="Deans office" stjkjn="l&#xa;;lm&#xa;" id="s3JqpcbHBy0NCb_YPVP7-34">
          <mxCell style="shape=umlActor;verticalLabelPosition=bottom;verticalAlign=top;html=1;outlineConnect=0;" vertex="1" parent="1">
            <mxGeometry x="760" y="356" width="20" height="40" as="geometry" />
          </mxCell>
        </object>
      </root>
    </mxGraphModel>
  </diagram>
</mxfile>
